<svg width="138" height="24" viewBox="0 0 138 24" fill="none" xmlns="http://www.w3.org/2000/svg">
<path fill-rule="evenodd" clip-rule="evenodd" d="M12.4738 19.4866C12.1823 19.333 11.8338 19.3329 11.5422 19.4862L6.65249 22.057C5.91885 22.4427 5.06139 21.8197 5.20153 21.0028L6.13563 15.5575C6.19132 15.2328 6.08357 14.9016 5.84754 14.6718L1.88688 10.8165C1.29261 10.2381 1.62021 9.22924 2.44096 9.11029L7.90487 8.31842C8.23073 8.2712 8.51246 8.06659 8.65818 7.77132L11.1032 2.81701C11.4701 2.07376 12.5299 2.07376 12.8967 2.81701L15.3418 7.77133C15.4875 8.06659 15.7692 8.2712 16.0951 8.31842L21.559 9.11029C22.3798 9.22924 22.7074 10.2381 22.1131 10.8165L18.1524 14.6718C17.9164 14.9016 17.8087 15.2328 17.8643 15.5575L18.798 21.0005C18.9382 21.8178 18.0799 22.4408 17.3462 22.0542L12.4738 19.4866Z" fill="#FF0000"/>
<path fill-rule="evenodd" clip-rule="evenodd" d="M40.9738 19.4866C40.6823 19.333 40.3338 19.3329 40.0422 19.4862L35.1525 22.057C34.4189 22.4427 33.5614 21.8197 33.7015 21.0028L34.6356 15.5575C34.6913 15.2328 34.5836 14.9016 34.3475 14.6718L30.3869 10.8165C29.7926 10.2381 30.1202 9.22924 30.941 9.11029L36.4049 8.31842C36.7307 8.2712 37.0125 8.06659 37.1582 7.77132L39.6032 2.81701C39.9701 2.07376 41.0299 2.07376 41.3967 2.81701L43.8418 7.77133C43.9875 8.06659 44.2692 8.2712 44.5951 8.31842L50.059 9.11029C50.8798 9.22924 51.2074 10.2381 50.6131 10.8165L46.6524 14.6718C46.4164 14.9016 46.3087 15.2328 46.3643 15.5575L47.298 21.0005C47.4382 21.8178 46.5799 22.4408 45.8462 22.0542L40.9738 19.4866Z" fill="#FF0000"/>
<path fill-rule="evenodd" clip-rule="evenodd" d="M69.4738 19.4866C69.1823 19.333 68.8338 19.3329 68.5422 19.4862L63.6525 22.057C62.9189 22.4427 62.0614 21.8197 62.2015 21.0028L63.1356 15.5575C63.1913 15.2328 63.0836 14.9016 62.8475 14.6718L58.8869 10.8165C58.2926 10.2381 58.6202 9.22924 59.441 9.11029L64.9049 8.31842C65.2307 8.2712 65.5125 8.06659 65.6582 7.77132L68.1032 2.81701C68.4701 2.07376 69.5299 2.07376 69.8967 2.81701L72.3418 7.77133C72.4875 8.06659 72.7692 8.2712 73.0951 8.31842L78.559 9.11029C79.3798 9.22924 79.7074 10.2381 79.1131 10.8165L75.1524 14.6718C74.9164 14.9016 74.8087 15.2328 74.8643 15.5575L75.798 21.0005C75.9382 21.8178 75.0799 22.4408 74.3462 22.0542L69.4738 19.4866Z" fill="#FF0000"/>
<path fill-rule="evenodd" clip-rule="evenodd" d="M97.9738 19.4866C97.6823 19.333 97.3338 19.3329 97.0422 19.4862L92.1525 22.057C91.4189 22.4427 90.5614 21.8197 90.7015 21.0028L91.6356 15.5575C91.6913 15.2328 91.5836 14.9016 91.3475 14.6718L87.3869 10.8165C86.7926 10.2381 87.1202 9.22924 87.941 9.11029L93.4049 8.31842C93.7307 8.2712 94.0125 8.06659 94.1582 7.77132L96.6032 2.81701C96.9701 2.07376 98.0299 2.07376 98.3967 2.81701L100.842 7.77133C100.988 8.06659 101.269 8.2712 101.595 8.31842L107.059 9.11029C107.88 9.22924 108.207 10.2381 107.613 10.8165L103.652 14.6718C103.416 14.9016 103.309 15.2328 103.364 15.5575L104.298 21.0005C104.438 21.8178 103.58 22.4408 102.846 22.0542L97.9738 19.4866Z" fill="#FF0000"/>
<path fill-rule="evenodd" clip-rule="evenodd" d="M126.474 19.4866C126.182 19.333 125.834 19.3329 125.542 19.4862L120.652 22.057C119.919 22.4427 119.061 21.8197 119.202 21.0028L120.136 15.5575C120.191 15.2328 120.084 14.9016 119.848 14.6718L115.887 10.8165C115.293 10.2381 115.62 9.22924 116.441 9.11029L121.905 8.31842C122.231 8.2712 122.512 8.06659 122.658 7.77132L125.103 2.81701C125.47 2.07376 126.53 2.07376 126.897 2.81701L129.342 7.77133C129.488 8.06659 129.769 8.2712 130.095 8.31842L135.559 9.11029C136.38 9.22924 136.707 10.2381 136.113 10.8165L132.152 14.6718C131.916 14.9016 131.809 15.2328 131.864 15.5575L132.798 21.0005C132.938 21.8178 132.08 22.4408 131.346 22.0542L126.474 19.4866Z" fill="#FF0000"/>
</svg>
